<?xml version="1.0" standalone="no"?>
<!DOCTYPE svg PUBLIC "-//W3C//DTD SVG 1.1//EN" "http://www.w3.org/Graphics/SVG/1.1/DTD/svg11.dtd">
<svg xmlns="http://www.w3.org/2000/svg" id="Layer_1" data-name="Layer 1" viewBox="0 0 988.74 650.7" width="988.739990234375" height="650.7000122070312">
  <defs>
    <style>
      .cls-1 {
        stroke-width: 0px;
      }
    </style>
  </defs>
  <path class="cls-1" d="M207.92,416.6c.34,1.37.51,2.65.51,3.85s-.17,2.65-.51,4.36c-.17.85-.34,1.62-.51,2.31-.17.68-.43,1.45-.77,2.31-.51,1.37-1.28,2.74-2.31,4.11-.34.85-.77,1.54-1.28,2.05-.51.51-1.03,1.03-1.54,1.54-1.2,1.2-1.97,1.88-2.31,2.05-1.37,1.37-3.3,2.44-5.78,3.21-2.48.77-4.49,1.24-6.03,1.41-5.99,1.03-11.81,1.54-17.45,1.54-7.02.17-13.86-.34-20.54-1.54-6.67-1.2-12.96-3.17-18.87-5.9-5.9-2.74-11.42-6.38-16.56-10.91-5.13-4.54-9.75-10.05-13.86-16.56-3.08-4.96-5.86-10.05-8.34-15.27-2.48-5.22-4.92-10.44-7.32-15.66-2.4-5.22-4.88-10.44-7.44-15.66-2.57-5.22-5.48-10.23-8.73-15.02-3.77-5.47-8.3-10.65-13.6-15.53-5.31-4.88-11.13-9.28-17.46-13.22-.69.17-1.71.26-3.08.26-1.2,0-3-.26-5.39-.77-2.4-.51-4.79-1.5-7.19-2.95-2.4-1.45-4.62-3.59-6.67-6.42-2.05-2.82-3.34-6.55-3.85-11.17-.51-4.11-.21-8,.9-11.68,1.12-3.68,2.78-6.71,5.01-9.11,2.22-2.39,4.75-3.98,7.57-4.75,2.82-.77,5.78-.38,8.86,1.16,3.76,2.05,7.06,3.25,9.88,3.59,2.82.34,5.26.13,7.32-.64,2.05-.77,3.81-2.01,5.26-3.72,1.45-1.71,2.61-3.59,3.47-5.65,2.05-4.79,3.16-10.85,3.34-18.19-.17-4.94-.43-10.05-.77-15.33-.34-4.43-.6-9.28-.77-14.56-.17-5.28-.34-10.39-.51-15.33H0v-33.63h129.11v33.63h-35.68v28.75h23.87v24.13h-23.87c-.17,4.28-.81,8.82-1.93,13.6-1.11,4.79-2.91,9.59-5.39,14.38-2.48,4.79-5.69,9.37-9.63,13.73-3.94,4.36-8.82,8.26-14.63,11.68,6.5,2.57,12.75,5.56,18.74,8.98,5.99,3.43,11.64,7.44,16.94,12.06,8.9,7.7,16.08,16.21,21.56,25.54,5.47,9.33,10.61,19.29,15.4,29.9,2.39,5.13,4.83,10.22,7.32,15.27,2.48,5.05,5.26,9.97,8.34,14.76,1.37,2.39,2.91,4.66,4.62,6.8,1.71,2.14,3.51,4.15,5.39,6.03,3.93,4.45,8.43,7.83,13.48,10.14,5.05,2.31,11.33,2.44,18.87.38,1.71-.69,2.91-1.2,3.59-1.54.68-.34,1.28-.69,1.8-1.03.51-.35,1.03-.77,1.54-1.28,1.03-.69,1.88-1.54,2.57-2.57,1.2-1.2,1.97-2.14,2.31-2.82.34-.51.64-1.07.9-1.67.26-.6.47-1.16.64-1.67.34-.86.68-1.97,1.03-3.34.34-1.37.51-2.48.51-3.34v-3.34c-.17-.34-.26-.77-.26-1.28s-.09-1.03-.26-1.54c-.51-1.88-1.2-3.51-2.05-4.88-.69-1.37-1.63-2.66-2.82-3.85-.51-.69-1.03-1.24-1.54-1.67-.51-.43-1.03-.81-1.54-1.16-2.4-1.54-4.11-2.4-5.13-2.57-1.37-.51-2.14-.77-2.31-.77-.34-.17-.26-.22.26-.13.51.08,1.28.3,2.31.64,1.37.34,2.91,1.03,4.62,2.05.68.51,1.71,1.28,3.08,2.31,1.03,1.2,2.22,2.65,3.59,4.36l1.54,3.08c.34.68.68,1.88,1.03,3.59Z"/>
  <path class="cls-1" d="M160.43,339.08c0,1.89-1.37,3.3-4.11,4.24-2.74.94-5.13.99-7.19.13-1.37-.34-3.12-1.54-5.26-3.59-2.14-2.05-4.49-4.19-7.06-6.42-3.59-3.25-7.19-6.5-10.78-9.75-3.59-3.25-6.16-5.73-7.7-7.44-.35-.51-.6-1.24-.77-2.18-.17-.94-.26-1.58-.26-1.93v-107.3h-10.27v-33.63h61.09v33.63h-17.45v117.56c-.17.34-.26.56-.26.64,0,.09-.09.3-.26.64-.17.35-.34.64-.51.9-.17.26-.43.56-.77.9-.35.69-.69,1.54-1.03,2.57-.34,1.03-.51,1.8-.51,2.31,0,1.03.08,1.8.26,2.31,0,.34.17,1.03.51,2.05l.77,1.54c.34.34.55.6.64.77.08.17.3.35.64.51.85,1.03,1.71,1.63,2.57,1.8,1.37.34,2.22.51,2.57.51.85,0,1.45-.08,1.8-.26,1.03-.34,1.84-.64,2.44-.9.6-.26.9-.13.9.38Z"/>
  <path class="cls-1" d="M156.32,30.54c4.79,11.64,6.08,22.81,3.85,33.5-2.22,10.7-6.76,20.75-13.6,30.16-.51.69-1.03,1.33-1.54,1.93-.51.6-1.03,1.33-1.54,2.18l-6.16,6.93c-.85.86-2.09,1.93-3.72,3.21-1.62,1.28-3.29,2.1-5.01,2.44-.17.17-.47.26-.9.26s-.9.09-1.41.26c-.85.17-2.14.26-3.85.26h-2.05c-.68,0-1.37-.08-2.05-.26-.51-.34-1.07-.55-1.67-.64-.6-.08-1.24-.3-1.93-.64-1.37-.68-2.39-1.28-3.08-1.8-.34-.34-.77-.73-1.28-1.15-.51-.43-.94-.81-1.28-1.16s-.64-.73-.9-1.16c-.26-.42-.55-.81-.9-1.15-.51-.85-.94-1.71-1.28-2.57-.34-.85-.6-1.67-.77-2.44-.17-.77-.34-1.5-.51-2.18v-.26c-2.57-4.62-5.13-9.67-7.7-15.14-2.39-5.82-3.89-11.55-4.49-17.2-.6-5.65-.38-11.12.64-16.43,1.03-5.3,2.7-10.44,5.01-15.4,2.31-4.96,5.18-9.75,8.6-14.37.51-.85,1.03-1.58,1.54-2.18.51-.6,1.03-1.24,1.54-1.93.86-1.37,1.84-2.61,2.95-3.72,1.11-1.11,2.18-2.27,3.21-3.47.86-.85,2.1-1.92,3.72-3.21,1.63-1.28,3.3-2.09,5.01-2.44.17,0,.94-.17,2.31-.51.86-.17,2.14-.26,3.85-.26.86,0,2.14.17,3.85.51,1.71.35,2.91.69,3.59,1.03.69.35,1.28.69,1.8,1.03.51.34.94.69,1.28,1.03h.26c.51.34,1.28,1.03,2.31,2.05,1.03,1.03,1.71,1.89,2.05,2.57.69,1.03,1.12,1.8,1.28,2.31.34.86.6,1.67.77,2.44.17.77.26,1.5.26,2.18.17,0,.26.09.26.26,2.57,4.62,5.13,9.67,7.7,15.14ZM109.09,104.98c.34.35.6.6.77.77l.77.77c-.85-1.54-1.71-3.04-2.57-4.49-.85-1.45-1.71-2.95-2.57-4.49.17.51.35,1.07.51,1.67.17.6.43,1.24.77,1.93.51,1.37,1.28,2.65,2.31,3.85ZM141.69,93.69c.51-2.05.69-4.19.51-6.42-.17-2.22-.51-4.45-1.03-6.67-.51-2.22-1.07-4.4-1.67-6.55-.6-2.14-1.32-4.24-2.18-6.29-1.88-4.45-3.89-8.68-6.03-12.71-2.14-4.02-4.4-8.09-6.8-12.19-2.39-4.11-4.7-8.21-6.93-12.32-2.22-4.11-4.19-8.3-5.9-12.58-.51,2.23-.68,4.41-.51,6.55.17,2.14.51,4.32,1.03,6.55.86,4.45,2.14,8.73,3.85,12.83,1.88,4.45,3.85,8.73,5.9,12.83,2.05,4.11,4.28,8.13,6.67,12.06,5.31,8.39,9.67,16.68,13.09,24.9ZM142.71,5.39c.86,1.37,1.71,2.82,2.57,4.36.86,1.54,1.71,3,2.57,4.36-.17-.68-.6-1.88-1.28-3.59-.34-.68-.73-1.32-1.16-1.93-.43-.6-.81-1.16-1.16-1.67l-1.54-1.54Z"/>
  <path class="cls-1" d="M294.67,204.83h-33.11c1.88,2.91,3.72,5.82,5.52,8.73,1.8,2.91,3.47,5.99,5.01,9.24,2.22,4.45,4.02,9.11,5.39,13.99,1.37,4.88,2.22,9.8,2.57,14.76.51,5.31.55,10.57.13,15.79-.43,5.22-1.33,10.4-2.69,15.53-.69,2.91-1.5,5.69-2.44,8.34-.94,2.66-1.92,5.35-2.95,8.09-1.2,2.91-2.4,5.78-3.59,8.6-1.2,2.82-2.57,5.43-4.11,7.83-3.25,4.97-7.28,9.37-12.06,13.22-4.79,3.85-10.1,6.46-15.91,7.83-8.9,2.05-17.37,2.31-25.41.77-8.05-1.54-15.14-4.62-21.31-9.24-6.16-4.62-11.21-10.61-15.14-17.97-3.94-7.36-6.24-15.91-6.93-25.67-.51-7.53.39-14.84,2.7-21.95,2.31-7.1,6.37-13.05,12.19-17.84,3.42-2.91,7.1-5.13,11.04-6.67,3.93-1.54,8.04-2.57,12.32-3.08,5.65-.68,11.25-.47,16.81.64,5.56,1.11,11.08,2.61,16.56,4.49,1.19.34,2.35.86,3.47,1.54,1.11.69,2.27,1.37,3.47,2.05.34-2.05.51-4.15.51-6.29v-6.29c-.34-4.62-.99-9.15-1.93-13.6-.94-4.45-2.18-8.73-3.72-12.83h-86.5v-33.63h140.15v33.63ZM236.14,277.99c2.39-5.65,4.45-11.12,6.16-16.43-1.37.17-2.74.3-4.11.39-1.37.09-2.74.3-4.11.64-4.79,1.03-9.41,2.91-13.86,5.65-6.16,3.94-10.95,9.24-14.37,15.92-3.43,6.67-5.05,13.69-4.88,21.05,0,.86.04,1.76.13,2.7.08.94.21,1.84.38,2.7.34,0,.55-.04.64-.13.08-.08.3-.13.64-.13,4.96-1.2,9.54-3.29,13.73-6.29,4.19-2.99,7.83-6.46,10.91-10.4,1.88-2.39,3.51-4.88,4.88-7.44,1.37-2.57,2.65-5.3,3.85-8.21Z"/>
  <path class="cls-1" d="M338.31,339.08c0,1.89-1.37,3.3-4.11,4.24-2.74.94-5.13.99-7.19.13-1.37-.34-3.12-1.54-5.26-3.59-2.14-2.05-4.49-4.19-7.06-6.42-3.59-3.25-7.19-6.5-10.78-9.75-3.59-3.25-6.16-5.73-7.7-7.44-.35-.51-.6-1.24-.77-2.18-.17-.94-.26-1.58-.26-1.93v-107.3h-10.27v-33.63h61.09v33.63h-17.45v117.56c-.17.34-.26.56-.26.64,0,.09-.09.3-.26.64-.17.35-.34.64-.51.9-.17.26-.43.56-.77.9-.35.69-.69,1.54-1.03,2.57-.34,1.03-.51,1.8-.51,2.31,0,1.03.08,1.8.26,2.31,0,.34.17,1.03.51,2.05l.77,1.54c.34.34.55.6.64.77.08.17.3.35.64.51.85,1.03,1.71,1.63,2.57,1.8,1.37.34,2.22.51,2.57.51.85,0,1.45-.08,1.8-.26,1.03-.34,1.84-.64,2.44-.9.6-.26.9-.13.9.38Z"/>
  <path class="cls-1" d="M541.34,416.86c.34,1.37.51,2.65.51,3.85s-.17,2.65-.51,4.36c-.17.85-.34,1.62-.51,2.31-.17.68-.43,1.45-.77,2.31-.51,1.37-1.28,2.74-2.31,4.11-.34.85-.77,1.54-1.28,2.05s-1.03,1.03-1.54,1.54c-1.2,1.2-1.97,1.88-2.31,2.05-1.37,1.37-3.3,2.44-5.78,3.21-2.48.77-4.49,1.24-6.03,1.41-5.99,1.03-11.81,1.54-17.45,1.54-7.02.17-13.86-.34-20.54-1.54-6.67-1.2-13.01-3.17-19-5.9-5.99-2.74-11.55-6.38-16.68-10.91-5.13-4.54-9.67-10.06-13.6-16.56-3.08-4.96-5.86-10.05-8.34-15.27-2.48-5.22-4.92-10.44-7.32-15.66-2.4-5.22-4.88-10.44-7.44-15.66-2.57-5.22-5.48-10.23-8.73-15.02-3.77-5.47-8.3-10.65-13.6-15.53-5.31-4.88-11.13-9.28-17.46-13.22-.69.17-1.71.26-3.08.26-1.2,0-3-.26-5.39-.77-2.4-.51-4.79-1.5-7.19-2.95-2.4-1.45-4.62-3.59-6.67-6.42-2.05-2.82-3.34-6.55-3.85-11.17,0-.34-.08-.6-.26-.77-.34-5.82.51-10.69,2.57-14.63,2.05-4.28,4.92-7.4,8.6-9.37,3.68-1.97,7.48-1.84,11.42.39,4.62,1.88,8.38,2.44,11.29,1.67,2.91-.77,5.26-2.27,7.06-4.49,1.8-2.22,3.12-4.75,3.98-7.57.85-2.82,1.45-5.26,1.8-7.32,0-.68.04-1.32.13-1.93.08-.6.13-1.07.13-1.41v-14.89c0-3.42-.04-7.06-.13-10.91-.09-3.85-.13-7.78-.13-11.81v-11.42h-57.5v-33.63h162.74v33.63h-67.77v51.08c0,4.28-.6,8.9-1.8,13.86-1.2,4.97-3.08,9.93-5.65,14.89-2.57,4.97-5.95,9.75-10.14,14.38-4.2,4.62-9.29,8.73-15.27,12.32,6.5,2.57,12.71,5.56,18.61,8.98,5.9,3.43,11.51,7.44,16.81,12.06,8.9,7.7,16.08,16.21,21.56,25.54,5.47,9.32,10.61,19.29,15.4,29.9,2.39,5.13,4.83,10.22,7.32,15.27,2.48,5.05,5.26,9.97,8.34,14.76,1.37,2.39,2.91,4.66,4.62,6.8,1.71,2.14,3.5,4.15,5.39,6.03,3.93,4.45,8.43,7.83,13.48,10.14,5.04,2.31,11.33,2.44,18.87.39,1.71-.69,2.91-1.2,3.59-1.54.68-.34,1.28-.69,1.8-1.03.51-.34,1.03-.77,1.54-1.28,1.03-.69,1.88-1.54,2.57-2.57,1.2-1.2,1.96-2.14,2.31-2.82.34-.51.64-1.07.9-1.67.26-.6.47-1.16.64-1.67.34-.86.68-1.97,1.03-3.34.34-1.37.51-2.48.51-3.34v-3.34c-.17-.34-.26-.77-.26-1.28s-.09-1.03-.26-1.54c-.51-1.88-1.2-3.51-2.05-4.88-.69-1.37-1.63-2.66-2.82-3.85-.51-.69-1.03-1.24-1.54-1.67-.51-.43-1.03-.81-1.54-1.16-2.4-1.54-4.11-2.4-5.13-2.57-1.37-.51-2.14-.77-2.31-.77-.34-.17-.26-.22.26-.13.51.08,1.28.3,2.31.64,1.37.34,2.82,1.03,4.36,2.05,1.03.51,2.05,1.28,3.08,2.31,1.2.85,2.48,2.31,3.85,4.36l1.54,3.08c.34.68.68,1.88,1.03,3.59Z"/>
  <path class="cls-1" d="M600.12,204.83h-149.91v-33.63h149.91v33.63ZM601.66,316.24c-8.21,3.94-16.6,6.16-25.16,6.67-3.25.17-6.85,0-10.78-.51-5.31-.68-10.52-2.39-15.66-5.13-2.91-1.54-5.78-3.25-8.6-5.13-2.82-1.88-5.52-3.85-8.09-5.9-2.74-2.22-5.39-4.45-7.96-6.67-2.57-2.22-4.88-4.62-6.93-7.19-2.23-2.39-4.15-4.96-5.78-7.7-1.63-2.74-2.87-5.73-3.72-8.98,0-.17-.04-.3-.13-.39-.09-.08-.13-.21-.13-.38-7.19-1.03-14.08-3.25-20.66-6.67-6.59-3.42-12.79-7.61-18.61-12.58-2.05-1.88-4.02-3.76-5.9-5.65-1.89-1.88-3.77-3.76-5.65-5.65-1.03-1.2-2.14-2.74-3.34-4.62-1.2-1.88-1.96-3.76-2.31-5.65,0-.34-.04-.73-.13-1.16-.08-.42-.13-.98-.13-1.67-.17-1.2-.17-2.57,0-4.11,0-1.54.26-2.99.77-4.36.34-.68.64-1.32.9-1.93.26-.6.55-1.24.9-1.92.51-1.2,1.28-2.31,2.31-3.34.34-.51.77-.98,1.28-1.41.51-.42.94-.81,1.28-1.15.51-.34,1.03-.64,1.54-.9.51-.26.94-.55,1.28-.9,1.37-.68,2.31-1.11,2.82-1.28,1.03-.34,1.96-.6,2.82-.77.85-.17,1.62-.26,2.31-.26,1.88,0,3.08.09,3.59.26,1.03.17,1.88.35,2.57.51.68.17,1.28.34,1.8.51.85.51,1.54.9,2.05,1.16.51.26.6.3.26.13-.51-.17-1.28-.42-2.31-.77-1.2-.68-2.91-1.11-5.13-1.28h-1.67c-.6,0-1.24.09-1.93.26-.69,0-1.37.09-2.05.26-.69.17-1.46.43-2.31.77-1.2.35-2.66,1.12-4.36,2.31-.34.34-.69.64-1.03.9-.34.26-.69.56-1.03.9-.35.34-.64.69-.9,1.03-.26.35-.56.77-.9,1.28-.69.69-1.28,1.54-1.8,2.57-.35.51-.56.99-.64,1.41-.09.43-.3.9-.64,1.41-.34,1.37-.51,2.48-.51,3.34-.17.69-.26,1.8-.26,3.34,0,.86.17,1.97.51,3.34,0,.69.09,1.28.26,1.8.17.51.34,1.11.51,1.8.68,1.37,1.28,2.4,1.8,3.08,3.93,5.82,8.34,9.41,13.22,10.78,4.88,1.37,10.05,1.63,15.53.77,2.39-.34,4.83-.73,7.32-1.15,2.48-.43,4.92-1.07,7.32-1.93,3.93-1.37,8.17-2.91,12.71-4.62,4.53-1.71,8.94-3.51,13.22-5.39.85-.34,1.71-.73,2.57-1.16.85-.43,1.71-.81,2.57-1.16l.26-.26c2.39-.85,4.83-1.58,7.32-2.18,2.48-.6,4.92-1.15,7.32-1.67.85.35,1.67.69,2.44,1.03.77.34,1.58.69,2.44,1.03,1.03.86,2.14,1.54,3.34,2.05,2.22,1.37,4.32,2.82,6.29,4.36,1.97,1.54,3.89,3.17,5.78,4.88.17,0,.34.09.51.26.85.86,1.71,1.63,2.57,2.31.85.69,1.71,1.46,2.57,2.31.85.86,1.8,1.97,2.82,3.34.85.86,1.2,1.8,1.03,2.82-.17.17-.51.26-1.03.26-.34,0-2.35.3-6.03.9-3.68.6-7.7,2.05-12.06,4.36-4.36,2.31-8.3,5.86-11.81,10.65-3.51,4.79-5.26,11.47-5.26,20.02,0,2.57.64,4.32,1.92,5.26,1.28.94,2.86,1.46,4.75,1.54,1.88.09,3.76-.08,5.65-.51,1.88-.42,3.5-.81,4.88-1.16,1.71-.34,3.08-.68,4.11-1.03,8.38-2.39,15.91-6.12,22.59-11.17,6.67-5.05,12.41-11.08,17.2-18.1v45.43c0,.51.13,1.2.38,2.05.26.86.55,1.54.9,2.05h.26Z"/>
  <path class="cls-1" d="M642.48,339.08c0,1.89-1.37,3.3-4.11,4.24-2.74.94-5.13.99-7.19.13-1.37-.34-3.12-1.54-5.26-3.59-2.14-2.05-4.49-4.19-7.06-6.42-3.59-3.25-7.19-6.5-10.78-9.75-3.59-3.25-6.16-5.73-7.7-7.44-.34-.51-.6-1.24-.77-2.18-.17-.94-.26-1.58-.26-1.93v-107.3h-10.27v-33.63h61.09v33.63h-17.46v117.56c-.17.34-.26.56-.26.64,0,.09-.09.3-.26.64-.17.35-.35.64-.51.9-.17.26-.43.56-.77.9-.34.69-.69,1.54-1.03,2.57-.34,1.03-.51,1.8-.51,2.31,0,1.03.08,1.8.26,2.31,0,.34.17,1.03.51,2.05l.77,1.54c.34.34.55.6.64.77.08.17.3.35.64.51.85,1.03,1.71,1.63,2.57,1.8,1.37.34,2.22.51,2.57.51.85,0,1.45-.08,1.8-.26,1.03-.34,1.84-.64,2.44-.9.6-.26.9-.13.9.38Z"/>
  <path class="cls-1" d="M760.04,171.21v33.63h-124.49v-33.63h124.49ZM707.93,222.03c7.19,1.2,14.29,2.14,21.31,2.82,7.01.69,14.12.34,21.3-1.03,1.54-.34,3.04-.73,4.49-1.16,1.45-.42,2.86-.9,4.24-1.41v30.55c-1.2-.17-2.4-.3-3.59-.39-1.2-.08-2.4-.21-3.59-.38-3.59-.51-7.15-1.07-10.65-1.67-3.51-.6-7.06-1.16-10.65-1.67-5.31-.68-10.61-.68-15.92,0l6.16,5.39c1.54,1.37,3.08,2.91,4.62,4.62,1.54,1.71,2.99,3.51,4.36,5.39,1.37,1.88,2.48,3.89,3.34,6.03.85,2.14,1.45,4.41,1.8,6.8.34,4.45,0,8.77-1.03,12.96-1.03,4.2-2.74,8.17-5.13,11.94-2.74,4.45-6.16,8.13-10.27,11.04-4.11,2.91-8.73,4.79-13.86,5.65-4.11.69-7.92.26-11.42-1.28-3.51-1.54-6.97-3.34-10.4-5.39-2.74-1.71-5.39-3.55-7.96-5.52-2.57-1.97-5.05-3.98-7.44-6.03-3.43-2.91-6.33-5.65-8.73-8.21-3.08-3.25-5.39-6.5-6.93-9.75-2.57-4.96-3.89-10.22-3.98-15.79-.08-5.56.73-10.91,2.44-16.04,1.71-5.3,4.32-10.14,7.83-14.5,3.5-4.36,7.74-7.74,12.71-10.14,5.3-2.57,10.87-4.11,16.68-4.62,3.42-.34,6.8-.26,10.14.26s6.71,1.03,10.14,1.54ZM682,287.49c5.99-3.42,10.74-8.3,14.25-14.63,3.51-6.33,5.26-12.83,5.26-19.51v-.26c-4.45,2.57-8.05,5.9-10.78,10.01-5.31,7.19-8.21,15.32-8.73,24.39Z"/>
  <path class="cls-1" d="M801.36,339.08c0,1.89-1.37,3.3-4.11,4.24-2.74.94-5.13.99-7.19.13-1.37-.34-3.12-1.54-5.26-3.59-2.14-2.05-4.49-4.19-7.06-6.42-3.59-3.25-7.19-6.5-10.78-9.75-3.59-3.25-6.16-5.73-7.7-7.44-.34-.51-.6-1.24-.77-2.18-.17-.94-.26-1.58-.26-1.93v-107.3h-10.27v-33.63h61.09v33.63h-17.46v117.56c-.17.34-.26.56-.26.64,0,.09-.09.3-.26.64-.17.35-.35.64-.51.9-.17.26-.43.56-.77.9-.34.69-.69,1.54-1.03,2.57-.34,1.03-.51,1.8-.51,2.31,0,1.03.08,1.8.26,2.31,0,.34.17,1.03.51,2.05l.77,1.54c.34.34.55.6.64.77.08.17.3.35.64.51.85,1.03,1.71,1.63,2.57,1.8,1.37.34,2.22.51,2.57.51.85,0,1.45-.08,1.8-.26,1.03-.34,1.84-.64,2.44-.9.6-.26.9-.13.9.38Z"/>
  <path class="cls-1" d="M852.44,339.08c0,1.89-1.37,3.3-4.11,4.24-2.74.94-5.13.99-7.19.13-1.37-.34-3.12-1.54-5.26-3.59-2.14-2.05-4.49-4.19-7.06-6.42-3.59-3.25-7.19-6.5-10.78-9.75-3.59-3.25-6.16-5.73-7.7-7.44-.34-.51-.6-1.24-.77-2.18-.17-.94-.26-1.58-.26-1.93v-107.3h-10.27v-33.63h61.09v33.63h-17.46v117.56c-.17.34-.26.56-.26.64,0,.09-.09.3-.26.64-.17.35-.35.64-.51.9-.17.26-.43.56-.77.9-.34.69-.69,1.54-1.03,2.57-.34,1.03-.51,1.8-.51,2.31,0,1.03.08,1.8.26,2.31,0,.34.17,1.03.51,2.05l.77,1.54c.34.34.55.6.64.77.08.17.3.35.64.51.85,1.03,1.71,1.63,2.57,1.8,1.37.34,2.22.51,2.57.51.85,0,1.45-.08,1.8-.26,1.03-.34,1.84-.64,2.44-.9.6-.26.9-.13.9.38Z"/>
</svg>